<svg width="229" height="65" viewBox="0 0 229 65" fill="none" xmlns="http://www.w3.org/2000/svg">
<g filter="url(#filter0_d_0_1)">
<rect x="4" width="221" height="57" rx="10" fill="#FFD3DE"/>
</g>
<g clip-path="url(#clip0_0_1)">
<path d="M30.5 18.9165C29.3739 18.934 28.2724 19.2484 27.3068 19.8278C26.3411 20.4072 25.5453 21.2312 25 22.2165C24.4546 21.2312 23.6589 20.4072 22.6932 19.8278C21.7275 19.2484 20.626 18.934 19.5 18.9165C17.7049 18.9945 16.0137 19.7798 14.7958 21.1008C13.5778 22.4217 12.9322 24.1711 13 25.9665C13 30.5135 17.786 35.4795 21.8 38.8465C22.6962 39.5997 23.8293 40.0126 25 40.0126C26.1706 40.0126 27.3038 39.5997 28.2 38.8465C32.214 35.4795 37 30.5135 37 25.9665C37.0677 24.1711 36.4221 22.4217 35.2042 21.1008C33.9863 19.7798 32.295 18.9945 30.5 18.9165Z" fill="#FF5F85"/>
</g>
<path d="M49.5043 25.2727V34H47.6591V27.0241H47.608L45.6094 28.277V26.6406L47.7699 25.2727H49.5043ZM61.7067 25.2727V34H60.1129L56.3161 28.5071H56.2521V34H54.407V25.2727H56.0263L59.7933 30.7614H59.87V25.2727H61.7067ZM66.18 34.1278C65.5067 34.1278 64.9272 33.9915 64.4414 33.7188C63.9585 33.4432 63.5863 33.054 63.3249 32.5511C63.0636 32.0455 62.9329 31.4474 62.9329 30.7571C62.9329 30.0838 63.0636 29.4929 63.3249 28.9844C63.5863 28.4759 63.9542 28.0795 64.4286 27.7955C64.9059 27.5114 65.4656 27.3693 66.1076 27.3693C66.5394 27.3693 66.9414 27.4389 67.3136 27.5781C67.6886 27.7145 68.0153 27.9205 68.2937 28.196C68.5749 28.4716 68.7937 28.8182 68.9499 29.2358C69.1062 29.6506 69.1843 30.1364 69.1843 30.6932V31.1918H63.6573V30.0668H67.4755C67.4755 29.8054 67.4187 29.5739 67.305 29.3722C67.1914 29.1705 67.0337 29.0128 66.832 28.8991C66.6332 28.7827 66.4016 28.7244 66.1374 28.7244C65.8619 28.7244 65.6175 28.7884 65.4045 28.9162C65.1942 29.0412 65.0295 29.2102 64.9102 29.4233C64.7908 29.6335 64.7298 29.8679 64.7269 30.1264V31.196C64.7269 31.5199 64.7866 31.7997 64.9059 32.0355C65.0281 32.2713 65.1999 32.4531 65.4215 32.581C65.6431 32.7088 65.9059 32.7727 66.2099 32.7727C66.4116 32.7727 66.5962 32.7443 66.7638 32.6875C66.9315 32.6307 67.0749 32.5455 67.1942 32.4318C67.3136 32.3182 67.4045 32.179 67.467 32.0142L69.146 32.125C69.0607 32.5284 68.886 32.8807 68.6218 33.1818C68.3604 33.4801 68.0224 33.7131 67.6076 33.8807C67.1957 34.0455 66.7198 34.1278 66.18 34.1278ZM71.6133 34L69.832 27.4545H71.6687L72.6829 31.8523H72.7425L73.7994 27.4545H75.6019L76.6758 31.8267H76.7312L77.7283 27.4545H79.5607L77.7837 34H75.8619L74.7369 29.8835H74.6559L73.5309 34H71.6133ZM83.3406 25.2727H85.6161L88.0195 31.1364H88.1218L90.5252 25.2727H92.8008V34H91.011V28.3196H90.9386L88.68 33.9574H87.4613L85.2028 28.2983H85.1303V34H83.3406V25.2727ZM97.2699 34.1278C96.5966 34.1278 96.017 33.9915 95.5312 33.7188C95.0483 33.4432 94.6761 33.054 94.4148 32.5511C94.1534 32.0455 94.0227 31.4474 94.0227 30.7571C94.0227 30.0838 94.1534 29.4929 94.4148 28.9844C94.6761 28.4759 95.044 28.0795 95.5185 27.7955C95.9957 27.5114 96.5554 27.3693 97.1974 27.3693C97.6293 27.3693 98.0313 27.4389 98.4034 27.5781C98.7784 27.7145 99.1051 27.9205 99.3835 28.196C99.6648 28.4716 99.8835 28.8182 100.04 29.2358C100.196 29.6506 100.274 30.1364 100.274 30.6932V31.1918H94.7472V30.0668H98.5653C98.5653 29.8054 98.5085 29.5739 98.3949 29.3722C98.2813 29.1705 98.1236 29.0128 97.9219 28.8991C97.723 28.7827 97.4915 28.7244 97.2273 28.7244C96.9517 28.7244 96.7074 28.7884 96.4943 28.9162C96.2841 29.0412 96.1193 29.2102 96 29.4233C95.8807 29.6335 95.8196 29.8679 95.8168 30.1264V31.196C95.8168 31.5199 95.8764 31.7997 95.9957 32.0355C96.1179 32.2713 96.2898 32.4531 96.5114 32.581C96.733 32.7088 96.9957 32.7727 97.2997 32.7727C97.5014 32.7727 97.6861 32.7443 97.8537 32.6875C98.0213 32.6307 98.1648 32.5455 98.2841 32.4318C98.4034 32.3182 98.4943 32.179 98.5568 32.0142L100.236 32.125C100.151 32.5284 99.9759 32.8807 99.7116 33.1818C99.4503 33.4801 99.1122 33.7131 98.6974 33.8807C98.2855 34.0455 97.8097 34.1278 97.2699 34.1278ZM106.905 29.321L105.243 29.4233C105.214 29.2812 105.153 29.1534 105.06 29.0398C104.966 28.9233 104.842 28.831 104.689 28.7628C104.538 28.6918 104.358 28.6562 104.148 28.6562C103.866 28.6562 103.629 28.7159 103.436 28.8352C103.243 28.9517 103.146 29.108 103.146 29.304C103.146 29.4602 103.209 29.5923 103.334 29.7003C103.459 29.8082 103.673 29.8949 103.977 29.9602L105.162 30.1989C105.798 30.3295 106.273 30.5398 106.585 30.8295C106.898 31.1193 107.054 31.5 107.054 31.9716C107.054 32.4006 106.928 32.777 106.675 33.1009C106.425 33.4247 106.081 33.6776 105.643 33.8594C105.209 34.0384 104.707 34.1278 104.139 34.1278C103.273 34.1278 102.582 33.9474 102.068 33.5866C101.557 33.223 101.257 32.7287 101.169 32.1037L102.955 32.0099C103.009 32.2741 103.139 32.4759 103.347 32.6151C103.554 32.7514 103.82 32.8196 104.143 32.8196C104.462 32.8196 104.717 32.7585 104.911 32.6364C105.107 32.5114 105.206 32.3509 105.209 32.1548C105.206 31.9901 105.136 31.8551 105 31.75C104.864 31.642 104.653 31.5597 104.369 31.5028L103.236 31.277C102.597 31.1491 102.121 30.9276 101.808 30.6122C101.499 30.2969 101.344 29.8949 101.344 29.4062C101.344 28.9858 101.457 28.6236 101.685 28.3196C101.915 28.0156 102.237 27.7812 102.652 27.6165C103.07 27.4517 103.558 27.3693 104.118 27.3693C104.945 27.3693 105.595 27.544 106.07 27.8935C106.547 28.2429 106.825 28.7187 106.905 29.321ZM113.643 29.321L111.981 29.4233C111.953 29.2812 111.892 29.1534 111.798 29.0398C111.704 28.9233 111.581 28.831 111.427 28.7628C111.277 28.6918 111.096 28.6562 110.886 28.6562C110.605 28.6562 110.368 28.7159 110.174 28.8352C109.981 28.9517 109.885 29.108 109.885 29.304C109.885 29.4602 109.947 29.5923 110.072 29.7003C110.197 29.8082 110.412 29.8949 110.716 29.9602L111.9 30.1989C112.537 30.3295 113.011 30.5398 113.324 30.8295C113.636 31.1193 113.792 31.5 113.792 31.9716C113.792 32.4006 113.666 32.777 113.413 33.1009C113.163 33.4247 112.819 33.6776 112.382 33.8594C111.947 34.0384 111.446 34.1278 110.877 34.1278C110.011 34.1278 109.321 33.9474 108.806 33.5866C108.295 33.223 107.995 32.7287 107.907 32.1037L109.693 32.0099C109.747 32.2741 109.877 32.4759 110.085 32.6151C110.292 32.7514 110.558 32.8196 110.882 32.8196C111.2 32.8196 111.456 32.7585 111.649 32.6364C111.845 32.5114 111.944 32.3509 111.947 32.1548C111.944 31.9901 111.875 31.8551 111.738 31.75C111.602 31.642 111.392 31.5597 111.108 31.5028L109.974 31.277C109.335 31.1491 108.859 30.9276 108.547 30.6122C108.237 30.2969 108.082 29.8949 108.082 29.4062C108.082 28.9858 108.196 28.6236 108.423 28.3196C108.653 28.0156 108.975 27.7812 109.39 27.6165C109.808 27.4517 110.297 27.3693 110.856 27.3693C111.683 27.3693 112.333 27.544 112.808 27.8935C113.285 28.2429 113.564 28.7187 113.643 29.321ZM116.802 34.1236C116.384 34.1236 116.012 34.0511 115.685 33.9062C115.359 33.7585 115.1 33.5412 114.91 33.2543C114.722 32.9645 114.629 32.6037 114.629 32.1719C114.629 31.8082 114.695 31.5028 114.829 31.2557C114.962 31.0085 115.144 30.8097 115.374 30.6591C115.604 30.5085 115.866 30.3949 116.158 30.3182C116.454 30.2415 116.763 30.1875 117.087 30.1562C117.468 30.1165 117.775 30.0795 118.008 30.0455C118.241 30.0085 118.41 29.9545 118.515 29.8835C118.62 29.8125 118.673 29.7074 118.673 29.5682V29.5426C118.673 29.2727 118.587 29.0639 118.417 28.9162C118.249 28.7685 118.011 28.6946 117.701 28.6946C117.374 28.6946 117.114 28.767 116.921 28.9119C116.728 29.054 116.6 29.233 116.538 29.4489L114.859 29.3125C114.944 28.9148 115.112 28.571 115.362 28.2812C115.612 27.9886 115.934 27.7642 116.329 27.608C116.727 27.4489 117.187 27.3693 117.71 27.3693C118.073 27.3693 118.421 27.4119 118.754 27.4972C119.089 27.5824 119.386 27.7145 119.644 27.8935C119.906 28.0724 120.112 28.3026 120.262 28.5838C120.413 28.8622 120.488 29.196 120.488 29.5852V34H118.766V33.0923H118.715C118.61 33.2969 118.469 33.4773 118.293 33.6335C118.117 33.7869 117.906 33.9077 117.658 33.9957C117.411 34.081 117.126 34.1236 116.802 34.1236ZM117.322 32.8707C117.589 32.8707 117.825 32.8182 118.029 32.7131C118.234 32.6051 118.394 32.4602 118.511 32.2784C118.627 32.0966 118.685 31.8906 118.685 31.6605V30.9659C118.629 31.0028 118.55 31.0369 118.451 31.0682C118.354 31.0966 118.245 31.1236 118.123 31.1491C118.001 31.1719 117.879 31.1932 117.756 31.2131C117.634 31.2301 117.523 31.2457 117.424 31.2599C117.211 31.2912 117.025 31.3409 116.866 31.4091C116.707 31.4773 116.583 31.5696 116.495 31.6861C116.407 31.7997 116.363 31.9418 116.363 32.1122C116.363 32.3594 116.452 32.5483 116.631 32.679C116.813 32.8068 117.043 32.8707 117.322 32.8707ZM124.845 36.5909C124.257 36.5909 123.753 36.5099 123.332 36.348C122.915 36.1889 122.582 35.9716 122.335 35.696C122.088 35.4205 121.928 35.1108 121.854 34.767L123.533 34.5412C123.584 34.6719 123.665 34.794 123.776 34.9077C123.886 35.0213 124.033 35.1122 124.214 35.1804C124.399 35.2514 124.624 35.2869 124.888 35.2869C125.283 35.2869 125.608 35.1903 125.864 34.9972C126.122 34.8068 126.251 34.4872 126.251 34.0384V32.8409H126.175C126.095 33.0227 125.976 33.1946 125.817 33.3565C125.658 33.5185 125.453 33.6506 125.203 33.7528C124.953 33.8551 124.655 33.9062 124.308 33.9062C123.817 33.9062 123.369 33.7926 122.966 33.5653C122.565 33.3352 122.246 32.9844 122.007 32.5128C121.771 32.0384 121.653 31.4389 121.653 30.7145C121.653 29.973 121.774 29.3537 122.016 28.8565C122.257 28.3594 122.578 27.9872 122.979 27.7401C123.382 27.4929 123.824 27.3693 124.304 27.3693C124.67 27.3693 124.977 27.4318 125.224 27.5568C125.472 27.679 125.67 27.8324 125.821 28.017C125.974 28.1989 126.092 28.3778 126.175 28.554H126.243V27.4545H128.045V34.0639C128.045 34.6207 127.909 35.0866 127.636 35.4616C127.364 35.8366 126.986 36.1179 126.503 36.3054C126.023 36.4957 125.47 36.5909 124.845 36.5909ZM124.884 32.5426C125.176 32.5426 125.423 32.4702 125.625 32.3253C125.83 32.1776 125.986 31.9673 126.094 31.6946C126.205 31.419 126.26 31.0895 126.26 30.706C126.26 30.3224 126.206 29.9901 126.098 29.7088C125.99 29.4247 125.834 29.2045 125.629 29.0483C125.425 28.892 125.176 28.8139 124.884 28.8139C124.585 28.8139 124.334 28.8949 124.129 29.0568C123.925 29.2159 123.77 29.4375 123.665 29.7216C123.56 30.0057 123.507 30.3338 123.507 30.706C123.507 31.0838 123.56 31.4105 123.665 31.6861C123.773 31.9588 123.928 32.1705 124.129 32.321C124.334 32.4687 124.585 32.5426 124.884 32.5426ZM132.473 34.1278C131.8 34.1278 131.22 33.9915 130.734 33.7188C130.251 33.4432 129.879 33.054 129.618 32.5511C129.357 32.0455 129.226 31.4474 129.226 30.7571C129.226 30.0838 129.357 29.4929 129.618 28.9844C129.879 28.4759 130.247 28.0795 130.722 27.7955C131.199 27.5114 131.759 27.3693 132.401 27.3693C132.832 27.3693 133.234 27.4389 133.607 27.5781C133.982 27.7145 134.308 27.9205 134.587 28.196C134.868 28.4716 135.087 28.8182 135.243 29.2358C135.399 29.6506 135.477 30.1364 135.477 30.6932V31.1918H129.95V30.0668H133.768C133.768 29.8054 133.712 29.5739 133.598 29.3722C133.484 29.1705 133.327 29.0128 133.125 28.8991C132.926 28.7827 132.695 28.7244 132.43 28.7244C132.155 28.7244 131.911 28.7884 131.697 28.9162C131.487 29.0412 131.322 29.2102 131.203 29.4233C131.084 29.6335 131.023 29.8679 131.02 30.1264V31.196C131.02 31.5199 131.08 31.7997 131.199 32.0355C131.321 32.2713 131.493 32.4531 131.714 32.581C131.936 32.7088 132.199 32.7727 132.503 32.7727C132.705 32.7727 132.889 32.7443 133.057 32.6875C133.224 32.6307 133.368 32.5455 133.487 32.4318C133.607 32.3182 133.697 32.179 133.76 32.0142L135.439 32.125C135.354 32.5284 135.179 32.8807 134.915 33.1818C134.653 33.4801 134.315 33.7131 133.901 33.8807C133.489 34.0455 133.013 34.1278 132.473 34.1278ZM139.473 34V25.2727H145.252V26.794H141.319V28.8736H144.868V30.3949H141.319V34H139.473ZM146.353 34V27.4545H148.113V28.5966H148.181C148.301 28.1903 148.501 27.8835 148.782 27.6761C149.064 27.4659 149.387 27.3608 149.754 27.3608C149.845 27.3608 149.943 27.3665 150.048 27.3778C150.153 27.3892 150.245 27.4048 150.325 27.4247V29.0355C150.24 29.0099 150.122 28.9872 149.971 28.9673C149.821 28.9474 149.683 28.9375 149.558 28.9375C149.291 28.9375 149.052 28.9957 148.842 29.1122C148.635 29.2259 148.47 29.3849 148.348 29.5895C148.228 29.794 148.169 30.0298 148.169 30.2969V34H146.353ZM153.916 34.1278C153.254 34.1278 152.682 33.9872 152.199 33.706C151.719 33.4219 151.348 33.027 151.087 32.5213C150.825 32.0128 150.695 31.4233 150.695 30.7528C150.695 30.0767 150.825 29.4858 151.087 28.9801C151.348 28.4716 151.719 28.0767 152.199 27.7955C152.682 27.5114 153.254 27.3693 153.916 27.3693C154.578 27.3693 155.149 27.5114 155.629 27.7955C156.112 28.0767 156.484 28.4716 156.746 28.9801C157.007 29.4858 157.138 30.0767 157.138 30.7528C157.138 31.4233 157.007 32.0128 156.746 32.5213C156.484 33.027 156.112 33.4219 155.629 33.706C155.149 33.9872 154.578 34.1278 153.916 34.1278ZM153.925 32.7216C154.226 32.7216 154.477 32.6364 154.679 32.4659C154.881 32.2926 155.033 32.0568 155.135 31.7585C155.24 31.4602 155.293 31.1207 155.293 30.7401C155.293 30.3594 155.24 30.0199 155.135 29.7216C155.033 29.4233 154.881 29.1875 154.679 29.0142C154.477 28.8409 154.226 28.7543 153.925 28.7543C153.621 28.7543 153.365 28.8409 153.158 29.0142C152.953 29.1875 152.798 29.4233 152.693 29.7216C152.591 30.0199 152.54 30.3594 152.54 30.7401C152.54 31.1207 152.591 31.4602 152.693 31.7585C152.798 32.0568 152.953 32.2926 153.158 32.4659C153.365 32.6364 153.621 32.7216 153.925 32.7216ZM158.318 34V27.4545H160.048V28.6094H160.125C160.261 28.2259 160.489 27.9233 160.807 27.7017C161.125 27.4801 161.506 27.3693 161.949 27.3693C162.398 27.3693 162.78 27.4815 163.095 27.706C163.411 27.9276 163.621 28.2287 163.726 28.6094H163.794C163.928 28.2344 164.169 27.9347 164.518 27.7102C164.871 27.483 165.287 27.3693 165.767 27.3693C166.378 27.3693 166.874 27.5639 167.254 27.9531C167.638 28.3395 167.83 28.8878 167.83 29.598V34H166.018V29.956C166.018 29.5923 165.922 29.3196 165.729 29.1378C165.536 28.956 165.294 28.8651 165.004 28.8651C164.675 28.8651 164.418 28.9702 164.233 29.1804C164.048 29.3878 163.956 29.6619 163.956 30.0028V34H162.196V29.9176C162.196 29.5966 162.104 29.3409 161.919 29.1506C161.737 28.9602 161.497 28.8651 161.199 28.8651C160.997 28.8651 160.815 28.9162 160.653 29.0185C160.494 29.1179 160.368 29.2585 160.274 29.4403C160.18 29.6193 160.134 29.8295 160.134 30.071V34H158.318ZM176.809 27.7827C176.775 27.4389 176.629 27.1719 176.37 26.9815C176.112 26.7912 175.761 26.696 175.318 26.696C175.017 26.696 174.762 26.7386 174.555 26.8239C174.348 26.9062 174.189 27.0213 174.078 27.169C173.97 27.3168 173.916 27.4844 173.916 27.6719C173.91 27.8281 173.943 27.9645 174.014 28.081C174.088 28.1974 174.189 28.2983 174.316 28.3835C174.444 28.4659 174.592 28.5384 174.76 28.6009C174.927 28.6605 175.106 28.7116 175.297 28.7543L176.081 28.9418C176.461 29.027 176.811 29.1406 177.129 29.2827C177.447 29.4247 177.723 29.5994 177.956 29.8068C178.189 30.0142 178.369 30.2585 178.497 30.5398C178.627 30.821 178.694 31.1435 178.697 31.5071C178.694 32.0412 178.558 32.5043 178.288 32.8963C178.021 33.2855 177.635 33.5881 177.129 33.804C176.626 34.017 176.02 34.1236 175.309 34.1236C174.605 34.1236 173.991 34.0156 173.468 33.7997C172.949 33.5838 172.542 33.2642 172.25 32.8409C171.96 32.4148 171.808 31.8878 171.794 31.2599H173.579C173.599 31.5526 173.683 31.7969 173.831 31.9929C173.981 32.1861 174.181 32.3324 174.431 32.4318C174.684 32.5284 174.97 32.5767 175.288 32.5767C175.6 32.5767 175.872 32.5312 176.102 32.4403C176.335 32.3494 176.515 32.223 176.643 32.0611C176.771 31.8991 176.835 31.7131 176.835 31.5028C176.835 31.3068 176.777 31.142 176.66 31.0085C176.547 30.875 176.379 30.7614 176.157 30.6676C175.939 30.5739 175.67 30.4886 175.352 30.4119L174.402 30.1733C173.666 29.9943 173.085 29.7145 172.659 29.3338C172.233 28.9531 172.021 28.4403 172.024 27.7955C172.021 27.267 172.162 26.8054 172.446 26.4105C172.733 26.0156 173.126 25.7074 173.626 25.4858C174.126 25.2642 174.694 25.1534 175.331 25.1534C175.978 25.1534 176.544 25.2642 177.027 25.4858C177.512 25.7074 177.89 26.0156 178.16 26.4105C178.43 26.8054 178.569 27.2628 178.578 27.7827H176.809ZM182.887 34.1278C182.214 34.1278 181.634 33.9915 181.148 33.7188C180.665 33.4432 180.293 33.054 180.032 32.5511C179.771 32.0455 179.64 31.4474 179.64 30.7571C179.64 30.0838 179.771 29.4929 180.032 28.9844C180.293 28.4759 180.661 28.0795 181.136 27.7955C181.613 27.5114 182.173 27.3693 182.815 27.3693C183.246 27.3693 183.648 27.4389 184.021 27.5781C184.396 27.7145 184.722 27.9205 185.001 28.196C185.282 28.4716 185.501 28.8182 185.657 29.2358C185.813 29.6506 185.891 30.1364 185.891 30.6932V31.1918H180.364V30.0668H184.183C184.183 29.8054 184.126 29.5739 184.012 29.3722C183.898 29.1705 183.741 29.0128 183.539 28.8991C183.34 28.7827 183.109 28.7244 182.844 28.7244C182.569 28.7244 182.325 28.7884 182.112 28.9162C181.901 29.0412 181.737 29.2102 181.617 29.4233C181.498 29.6335 181.437 29.8679 181.434 30.1264V31.196C181.434 31.5199 181.494 31.7997 181.613 32.0355C181.735 32.2713 181.907 32.4531 182.129 32.581C182.35 32.7088 182.613 32.7727 182.917 32.7727C183.119 32.7727 183.303 32.7443 183.471 32.6875C183.638 32.6307 183.782 32.5455 183.901 32.4318C184.021 32.3182 184.112 32.179 184.174 32.0142L185.853 32.125C185.768 32.5284 185.593 32.8807 185.329 33.1818C185.067 33.4801 184.729 33.7131 184.315 33.8807C183.903 34.0455 183.427 34.1278 182.887 34.1278ZM187.076 34V27.4545H188.836V28.5966H188.904C189.023 28.1903 189.224 27.8835 189.505 27.6761C189.786 27.4659 190.11 27.3608 190.477 27.3608C190.567 27.3608 190.665 27.3665 190.771 27.3778C190.876 27.3892 190.968 27.4048 191.048 27.4247V29.0355C190.962 29.0099 190.844 28.9872 190.694 28.9673C190.543 28.9474 190.406 28.9375 190.281 28.9375C190.013 28.9375 189.775 28.9957 189.565 29.1122C189.357 29.2259 189.192 29.3849 189.07 29.5895C188.951 29.794 188.891 30.0298 188.891 30.2969V34H187.076ZM194.664 34.1278C193.991 34.1278 193.412 33.9915 192.926 33.7188C192.443 33.4432 192.071 33.054 191.809 32.5511C191.548 32.0455 191.417 31.4474 191.417 30.7571C191.417 30.0838 191.548 29.4929 191.809 28.9844C192.071 28.4759 192.439 28.0795 192.913 27.7955C193.39 27.5114 193.95 27.3693 194.592 27.3693C195.024 27.3693 195.426 27.4389 195.798 27.5781C196.173 27.7145 196.5 27.9205 196.778 28.196C197.059 28.4716 197.278 28.8182 197.434 29.2358C197.591 29.6506 197.669 30.1364 197.669 30.6932V31.1918H192.142V30.0668H195.96C195.96 29.8054 195.903 29.5739 195.789 29.3722C195.676 29.1705 195.518 29.0128 195.316 28.8991C195.118 28.7827 194.886 28.7244 194.622 28.7244C194.346 28.7244 194.102 28.7884 193.889 28.9162C193.679 29.0412 193.514 29.2102 193.395 29.4233C193.275 29.6335 193.214 29.8679 193.211 30.1264V31.196C193.211 31.5199 193.271 31.7997 193.39 32.0355C193.512 32.2713 193.684 32.4531 193.906 32.581C194.127 32.7088 194.39 32.7727 194.694 32.7727C194.896 32.7727 195.081 32.7443 195.248 32.6875C195.416 32.6307 195.559 32.5455 195.679 32.4318C195.798 32.3182 195.889 32.179 195.951 32.0142L197.63 32.125C197.545 32.5284 197.37 32.8807 197.106 33.1818C196.845 33.4801 196.507 33.7131 196.092 33.8807C195.68 34.0455 195.204 34.1278 194.664 34.1278ZM200.669 30.2159V34H198.853V27.4545H200.583V28.6094H200.66C200.805 28.2287 201.048 27.9276 201.389 27.706C201.73 27.4815 202.143 27.3693 202.629 27.3693C203.083 27.3693 203.48 27.4688 203.818 27.6676C204.156 27.8665 204.419 28.1506 204.606 28.5199C204.794 28.8864 204.887 29.3239 204.887 29.8324V34H203.072V30.1562C203.075 29.7557 202.973 29.4432 202.765 29.2188C202.558 28.9915 202.272 28.8778 201.909 28.8778C201.664 28.8778 201.449 28.9304 201.261 29.0355C201.076 29.1406 200.931 29.294 200.826 29.4957C200.724 29.6946 200.672 29.9347 200.669 30.2159ZM208.185 34.1236C207.767 34.1236 207.395 34.0511 207.068 33.9062C206.741 33.7585 206.483 33.5412 206.293 33.2543C206.105 32.9645 206.011 32.6037 206.011 32.1719C206.011 31.8082 206.078 31.5028 206.212 31.2557C206.345 31.0085 206.527 30.8097 206.757 30.6591C206.987 30.5085 207.249 30.3949 207.541 30.3182C207.837 30.2415 208.146 30.1875 208.47 30.1562C208.851 30.1165 209.158 30.0795 209.391 30.0455C209.624 30.0085 209.793 29.9545 209.898 29.8835C210.003 29.8125 210.055 29.7074 210.055 29.5682V29.5426C210.055 29.2727 209.97 29.0639 209.8 28.9162C209.632 28.7685 209.393 28.6946 209.084 28.6946C208.757 28.6946 208.497 28.767 208.304 28.9119C208.111 29.054 207.983 29.233 207.92 29.4489L206.241 29.3125C206.327 28.9148 206.494 28.571 206.744 28.2812C206.994 27.9886 207.317 27.7642 207.712 27.608C208.109 27.4489 208.57 27.3693 209.092 27.3693C209.456 27.3693 209.804 27.4119 210.136 27.4972C210.472 27.5824 210.768 27.7145 211.027 27.8935C211.288 28.0724 211.494 28.3026 211.645 28.5838C211.795 28.8622 211.871 29.196 211.871 29.5852V34H210.149V33.0923H210.098C209.993 33.2969 209.852 33.4773 209.676 33.6335C209.5 33.7869 209.288 33.9077 209.041 33.9957C208.794 34.081 208.509 34.1236 208.185 34.1236ZM208.705 32.8707C208.972 32.8707 209.207 32.8182 209.412 32.7131C209.616 32.6051 209.777 32.4602 209.893 32.2784C210.01 32.0966 210.068 31.8906 210.068 31.6605V30.9659C210.011 31.0028 209.933 31.0369 209.834 31.0682C209.737 31.0966 209.628 31.1236 209.506 31.1491C209.384 31.1719 209.261 31.1932 209.139 31.2131C209.017 31.2301 208.906 31.2457 208.807 31.2599C208.594 31.2912 208.408 31.3409 208.249 31.4091C208.089 31.4773 207.966 31.5696 207.878 31.6861C207.79 31.7997 207.746 31.9418 207.746 32.1122C207.746 32.3594 207.835 32.5483 208.014 32.679C208.196 32.8068 208.426 32.8707 208.705 32.8707Z" fill="#634409"/>
<defs>
<filter id="filter0_d_0_1" x="0" y="0" width="229" height="65" filterUnits="userSpaceOnUse" color-interpolation-filters="sRGB">
<feFlood flood-opacity="0" result="BackgroundImageFix"/>
<feColorMatrix in="SourceAlpha" type="matrix" values="0 0 0 0 0 0 0 0 0 0 0 0 0 0 0 0 0 0 127 0" result="hardAlpha"/>
<feOffset dy="4"/>
<feGaussianBlur stdDeviation="2"/>
<feComposite in2="hardAlpha" operator="out"/>
<feColorMatrix type="matrix" values="0 0 0 0 0.387126 0 0 0 0 0.267217 0 0 0 0 0.0344532 0 0 0 0.44 0"/>
<feBlend mode="normal" in2="BackgroundImageFix" result="effect1_dropShadow_0_1"/>
<feBlend mode="normal" in="SourceGraphic" in2="effect1_dropShadow_0_1" result="shape"/>
</filter>
<clipPath id="clip0_0_1">
<rect width="24" height="24" fill="white" transform="translate(13 17)"/>
</clipPath>
</defs>
</svg>
