<svg width="303" height="599" viewBox="0 0 303 599" fill="none" xmlns="http://www.w3.org/2000/svg">
<rect width="303" height="599" fill="#FFEEF7"/>
<g filter="url(#filter0_d_0_1)">
<rect x="11" y="7" width="281" height="577" rx="30" fill="#FBFADB"/>
<rect x="7.5" y="3.5" width="288" height="584" rx="33.5" stroke="black" stroke-width="7" stroke-linejoin="round"/>
</g>
<mask id="path-3-outside-1_0_1" maskUnits="userSpaceOnUse" x="72" y="91" width="163" height="61" fill="black">
<rect fill="white" x="72" y="91" width="163" height="61"/>
<path d="M73.7159 151V142.136L94.4261 122.96C96.1875 121.256 97.6648 119.722 98.858 118.358C100.07 116.994 100.989 115.659 101.614 114.352C102.239 113.027 102.551 111.597 102.551 110.062C102.551 108.358 102.163 106.89 101.386 105.659C100.61 104.409 99.5492 103.453 98.2045 102.79C96.8598 102.108 95.3352 101.767 93.6307 101.767C91.8504 101.767 90.2973 102.127 88.9716 102.847C87.6458 103.566 86.6231 104.598 85.9034 105.943C85.1837 107.288 84.8239 108.888 84.8239 110.744H73.1477C73.1477 106.937 74.0095 103.633 75.733 100.83C77.4564 98.0265 79.8712 95.858 82.9773 94.3239C86.0833 92.7898 89.6629 92.0227 93.7159 92.0227C97.8826 92.0227 101.509 92.7614 104.597 94.2386C107.703 95.697 110.117 97.7235 111.841 100.318C113.564 102.913 114.426 105.886 114.426 109.239C114.426 111.436 113.991 113.604 113.119 115.744C112.267 117.884 110.742 120.261 108.545 122.875C106.348 125.47 103.252 128.585 99.2557 132.222L90.7614 140.545V140.943H115.193V151H73.7159ZM131.294 144.239C129.419 144.239 127.809 143.576 126.464 142.25C125.139 140.924 124.476 139.314 124.476 137.42C124.476 135.564 125.139 133.973 126.464 132.648C127.809 131.322 129.419 130.659 131.294 130.659C133.112 130.659 134.703 131.322 136.067 132.648C137.43 133.973 138.112 135.564 138.112 137.42C138.112 138.67 137.79 139.816 137.146 140.858C136.521 141.881 135.697 142.705 134.675 143.33C133.652 143.936 132.525 144.239 131.294 144.239ZM131.294 115.688C129.419 115.688 127.809 115.025 126.464 113.699C125.139 112.373 124.476 110.763 124.476 108.869C124.476 107.013 125.139 105.432 126.464 104.125C127.809 102.799 129.419 102.136 131.294 102.136C133.112 102.136 134.703 102.799 136.067 104.125C137.43 105.432 138.112 107.013 138.112 108.869C138.112 110.138 137.79 111.294 137.146 112.335C136.521 113.358 135.697 114.172 134.675 114.778C133.652 115.384 132.525 115.688 131.294 115.688ZM173.247 92.8182V151H160.946V104.494H160.605L147.281 112.847V101.938L161.685 92.8182H173.247ZM186.195 140.773V131.085L210.484 92.8182H218.837V106.227H213.893L198.581 130.46V130.915H233.098V140.773H186.195ZM214.121 151V137.818L214.348 133.528V92.8182H225.882V151H214.121Z"/>
</mask>
<path d="M73.7159 151V142.136L94.4261 122.96C96.1875 121.256 97.6648 119.722 98.858 118.358C100.07 116.994 100.989 115.659 101.614 114.352C102.239 113.027 102.551 111.597 102.551 110.062C102.551 108.358 102.163 106.89 101.386 105.659C100.61 104.409 99.5492 103.453 98.2045 102.79C96.8598 102.108 95.3352 101.767 93.6307 101.767C91.8504 101.767 90.2973 102.127 88.9716 102.847C87.6458 103.566 86.6231 104.598 85.9034 105.943C85.1837 107.288 84.8239 108.888 84.8239 110.744H73.1477C73.1477 106.937 74.0095 103.633 75.733 100.83C77.4564 98.0265 79.8712 95.858 82.9773 94.3239C86.0833 92.7898 89.6629 92.0227 93.7159 92.0227C97.8826 92.0227 101.509 92.7614 104.597 94.2386C107.703 95.697 110.117 97.7235 111.841 100.318C113.564 102.913 114.426 105.886 114.426 109.239C114.426 111.436 113.991 113.604 113.119 115.744C112.267 117.884 110.742 120.261 108.545 122.875C106.348 125.47 103.252 128.585 99.2557 132.222L90.7614 140.545V140.943H115.193V151H73.7159ZM131.294 144.239C129.419 144.239 127.809 143.576 126.464 142.25C125.139 140.924 124.476 139.314 124.476 137.42C124.476 135.564 125.139 133.973 126.464 132.648C127.809 131.322 129.419 130.659 131.294 130.659C133.112 130.659 134.703 131.322 136.067 132.648C137.43 133.973 138.112 135.564 138.112 137.42C138.112 138.67 137.79 139.816 137.146 140.858C136.521 141.881 135.697 142.705 134.675 143.33C133.652 143.936 132.525 144.239 131.294 144.239ZM131.294 115.688C129.419 115.688 127.809 115.025 126.464 113.699C125.139 112.373 124.476 110.763 124.476 108.869C124.476 107.013 125.139 105.432 126.464 104.125C127.809 102.799 129.419 102.136 131.294 102.136C133.112 102.136 134.703 102.799 136.067 104.125C137.43 105.432 138.112 107.013 138.112 108.869C138.112 110.138 137.79 111.294 137.146 112.335C136.521 113.358 135.697 114.172 134.675 114.778C133.652 115.384 132.525 115.688 131.294 115.688ZM173.247 92.8182V151H160.946V104.494H160.605L147.281 112.847V101.938L161.685 92.8182H173.247ZM186.195 140.773V131.085L210.484 92.8182H218.837V106.227H213.893L198.581 130.46V130.915H233.098V140.773H186.195ZM214.121 151V137.818L214.348 133.528V92.8182H225.882V151H214.121Z" fill="#634409"/>
<path d="M73.7159 151H72.7159V152H73.7159V151ZM73.7159 142.136L73.0365 141.403L72.7159 141.699V142.136H73.7159ZM94.4261 122.96L95.1055 123.694L95.1136 123.686L95.1216 123.679L94.4261 122.96ZM98.858 118.358L98.1105 117.694L98.1054 117.699L98.858 118.358ZM101.614 114.352L102.516 114.784L102.518 114.779L101.614 114.352ZM101.386 105.659L100.537 106.187L100.541 106.193L101.386 105.659ZM98.2045 102.79L97.7523 103.682L97.7624 103.687L98.2045 102.79ZM85.9034 105.943L86.7851 106.415L86.7851 106.415L85.9034 105.943ZM84.8239 110.744V111.744H85.8239V110.744H84.8239ZM73.1477 110.744H72.1477V111.744H73.1477V110.744ZM75.733 100.83L76.5848 101.353L76.5848 101.353L75.733 100.83ZM82.9773 94.3239L82.5344 93.4273L82.5344 93.4273L82.9773 94.3239ZM104.597 94.2386L104.165 95.1407L104.172 95.1438L104.597 94.2386ZM111.841 100.318L111.008 100.871L111.008 100.871L111.841 100.318ZM113.119 115.744L112.193 115.367L112.19 115.374L113.119 115.744ZM108.545 122.875L109.309 123.521L109.311 123.518L108.545 122.875ZM99.2557 132.222L98.5827 131.482L98.569 131.494L98.5558 131.507L99.2557 132.222ZM90.7614 140.545L90.0615 139.831L89.7614 140.125V140.545H90.7614ZM90.7614 140.943H89.7614V141.943H90.7614V140.943ZM115.193 140.943H116.193V139.943H115.193V140.943ZM115.193 151V152H116.193V151H115.193ZM74.7159 151V142.136H72.7159V151H74.7159ZM74.3953 142.87L95.1055 123.694L93.7467 122.226L73.0365 141.403L74.3953 142.87ZM95.1216 123.679C96.8964 121.961 98.3941 120.407 99.6105 119.016L98.1054 117.699C96.9355 119.036 95.4786 120.55 93.7307 122.242L95.1216 123.679ZM99.6054 119.022C100.864 117.606 101.841 116.194 102.516 114.784L100.712 113.921C100.136 115.125 99.2758 116.383 98.1105 117.694L99.6054 119.022ZM102.518 114.779C103.209 113.313 103.551 111.737 103.551 110.062H101.551C101.551 111.456 101.268 112.74 100.709 113.926L102.518 114.779ZM103.551 110.062C103.551 108.202 103.126 106.542 102.232 105.126L100.541 106.193C101.2 107.238 101.551 108.514 101.551 110.062H103.551ZM102.236 105.131C101.359 103.72 100.156 102.637 98.6467 101.893L97.7624 103.687C98.9428 104.269 99.8609 105.099 100.537 106.187L102.236 105.131ZM98.6568 101.898C97.1546 101.136 95.4717 100.767 93.6307 100.767V102.767C95.1988 102.767 96.5651 103.08 97.7523 103.682L98.6568 101.898ZM93.6307 100.767C91.7138 100.767 89.991 101.155 88.4945 101.968L89.4487 103.725C90.6037 103.098 91.987 102.767 93.6307 102.767V100.767ZM88.4945 101.968C86.995 102.782 85.8326 103.956 85.0217 105.471L86.7851 106.415C87.4137 105.241 88.2967 104.351 89.4487 103.725L88.4945 101.968ZM85.0217 105.471C84.2092 106.989 83.8239 108.759 83.8239 110.744H85.8239C85.8239 109.018 86.1582 107.586 86.7851 106.415L85.0217 105.471ZM84.8239 109.744H73.1477V111.744H84.8239V109.744ZM74.1477 110.744C74.1477 107.093 74.9726 103.975 76.5848 101.353L74.8811 100.306C73.0464 103.29 72.1477 106.782 72.1477 110.744H74.1477ZM76.5848 101.353C78.2044 98.7192 80.4734 96.6758 83.4201 95.2205L82.5344 93.4273C79.269 95.0401 76.7084 97.3338 74.8811 100.306L76.5848 101.353ZM83.4201 95.2205C86.3669 93.765 89.7905 93.0227 93.7159 93.0227V91.0227C89.5353 91.0227 85.7998 91.8145 82.5344 93.4273L83.4201 95.2205ZM93.7159 93.0227C97.7651 93.0227 101.239 93.7404 104.165 95.1407L105.028 93.3366C101.78 91.7823 98.0001 91.0227 93.7159 91.0227V93.0227ZM104.172 95.1438C107.129 96.5325 109.396 98.4444 111.008 100.871L112.674 99.7649C110.839 97.0026 108.276 94.8614 105.022 93.3334L104.172 95.1438ZM111.008 100.871C112.614 103.29 113.426 106.068 113.426 109.239H115.426C115.426 105.705 114.515 102.536 112.674 99.7649L111.008 100.871ZM113.426 109.239C113.426 111.3 113.018 113.341 112.193 115.367L114.046 116.121C114.963 113.868 115.426 111.571 115.426 109.239H113.426ZM112.19 115.374C111.392 117.38 109.938 119.664 107.78 122.232L109.311 123.518C111.547 120.859 113.142 118.389 114.048 116.114L112.19 115.374ZM107.782 122.229C105.625 124.777 102.563 127.86 98.5827 131.482L99.9287 132.961C103.941 129.311 107.072 126.162 109.309 123.521L107.782 122.229ZM98.5558 131.507L90.0615 139.831L91.4613 141.26L99.9556 132.936L98.5558 131.507ZM89.7614 140.545V140.943H91.7614V140.545H89.7614ZM90.7614 141.943H115.193V139.943H90.7614V141.943ZM114.193 140.943V151H116.193V140.943H114.193ZM115.193 150H73.7159V152H115.193V150ZM126.464 142.25L125.757 142.957L125.762 142.962L126.464 142.25ZM126.464 132.648L125.762 131.936L125.757 131.941L126.464 132.648ZM136.067 132.648L136.764 131.931L136.764 131.931L136.067 132.648ZM137.146 140.858L136.296 140.332L136.293 140.337L137.146 140.858ZM134.675 143.33L135.185 144.19L135.196 144.183L134.675 143.33ZM126.464 113.699L125.757 114.406L125.762 114.411L126.464 113.699ZM126.464 104.125L127.166 104.837L127.167 104.837L126.464 104.125ZM136.067 104.125L135.37 104.842L135.375 104.847L136.067 104.125ZM137.146 112.335L136.296 111.809L136.293 111.814L137.146 112.335ZM134.675 114.778L134.165 113.918L134.165 113.918L134.675 114.778ZM131.294 143.239C129.684 143.239 128.326 142.681 127.167 141.538L125.762 142.962C127.293 144.471 129.154 145.239 131.294 145.239V143.239ZM127.172 141.543C126.036 140.407 125.476 139.052 125.476 137.42H123.476C123.476 139.577 124.242 141.442 125.757 142.957L127.172 141.543ZM125.476 137.42C125.476 135.833 126.031 134.495 127.172 133.355L125.757 131.941C124.246 133.452 123.476 135.296 123.476 137.42H125.476ZM127.167 133.36C128.326 132.217 129.684 131.659 131.294 131.659V129.659C129.154 129.659 127.293 130.427 125.762 131.936L127.167 133.36ZM131.294 131.659C132.839 131.659 134.183 132.211 135.37 133.365L136.764 131.931C135.223 130.433 133.386 129.659 131.294 129.659V131.659ZM135.37 133.365C136.545 134.507 137.112 135.842 137.112 137.42H139.112C139.112 135.287 138.316 133.44 136.764 131.931L135.37 133.365ZM137.112 137.42C137.112 138.489 136.84 139.452 136.296 140.332L137.997 141.384C138.741 140.181 139.112 138.852 139.112 137.42H137.112ZM136.293 140.337C135.751 141.224 135.041 141.934 134.153 142.476L135.196 144.183C136.354 143.475 137.292 142.537 138 141.379L136.293 140.337ZM134.165 142.469C133.302 142.981 132.352 143.239 131.294 143.239V145.239C132.698 145.239 134.002 144.891 135.185 144.19L134.165 142.469ZM131.294 114.688C129.684 114.688 128.326 114.13 127.167 112.987L125.762 114.411C127.293 115.92 129.154 116.688 131.294 116.688V114.688ZM127.172 112.992C126.036 111.856 125.476 110.501 125.476 108.869H123.476C123.476 111.025 124.242 112.891 125.757 114.406L127.172 112.992ZM125.476 108.869C125.476 107.282 126.031 105.957 127.166 104.837L125.762 103.413C124.247 104.907 123.476 106.745 123.476 108.869H125.476ZM127.167 104.837C128.326 103.694 129.684 103.136 131.294 103.136V101.136C129.154 101.136 127.293 101.904 125.762 103.413L127.167 104.837ZM131.294 103.136C132.839 103.136 134.183 103.688 135.37 104.842L136.764 103.408C135.223 101.91 133.386 101.136 131.294 101.136V103.136ZM135.375 104.847C136.546 105.969 137.112 107.291 137.112 108.869H139.112C139.112 106.735 138.315 104.895 136.759 103.403L135.375 104.847ZM137.112 108.869C137.112 109.96 136.838 110.932 136.296 111.809L137.997 112.861C138.742 111.655 139.112 110.317 139.112 108.869H137.112ZM136.293 111.814C135.752 112.698 135.046 113.396 134.165 113.918L135.185 115.639C136.349 114.949 137.29 114.017 138 112.857L136.293 111.814ZM134.165 113.918C133.302 114.429 132.352 114.688 131.294 114.688V116.688C132.698 116.688 134.002 116.34 135.185 115.639L134.165 113.918ZM173.247 92.8182H174.247V91.8182H173.247V92.8182ZM173.247 151V152H174.247V151H173.247ZM160.946 151H159.946V152H160.946V151ZM160.946 104.494H161.946V103.494H160.946V104.494ZM160.605 104.494V103.494H160.318L160.074 103.647L160.605 104.494ZM147.281 112.847H146.281V114.654L147.812 113.694L147.281 112.847ZM147.281 101.938L146.746 101.093L146.281 101.387V101.938H147.281ZM161.685 92.8182V91.8182H161.395L161.15 91.9733L161.685 92.8182ZM172.247 92.8182V151H174.247V92.8182H172.247ZM173.247 150H160.946V152H173.247V150ZM161.946 151V104.494H159.946V151H161.946ZM160.946 103.494H160.605V105.494H160.946V103.494ZM160.074 103.647L146.75 111.999L147.812 113.694L161.136 105.342L160.074 103.647ZM148.281 112.847V101.938H146.281V112.847H148.281ZM147.816 102.782L162.22 93.6631L161.15 91.9733L146.746 101.093L147.816 102.782ZM161.685 93.8182H173.247V91.8182H161.685V93.8182ZM186.195 140.773H185.195V141.773H186.195V140.773ZM186.195 131.085L185.35 130.549L185.195 130.795V131.085H186.195ZM210.484 92.8182V91.8182H209.935L209.64 92.2823L210.484 92.8182ZM218.837 92.8182H219.837V91.8182H218.837V92.8182ZM218.837 106.227V107.227H219.837V106.227H218.837ZM213.893 106.227V105.227H213.342L213.048 105.693L213.893 106.227ZM198.581 130.46L197.736 129.926L197.581 130.171V130.46H198.581ZM198.581 130.915H197.581V131.915H198.581V130.915ZM233.098 130.915H234.098V129.915H233.098V130.915ZM233.098 140.773V141.773H234.098V140.773H233.098ZM214.121 151H213.121V152H214.121V151ZM214.121 137.818L213.122 137.765L213.121 137.792V137.818H214.121ZM214.348 133.528L215.347 133.581L215.348 133.555V133.528H214.348ZM214.348 92.8182V91.8182H213.348V92.8182H214.348ZM225.882 92.8182H226.882V91.8182H225.882V92.8182ZM225.882 151V152H226.882V151H225.882ZM187.195 140.773V131.085H185.195V140.773H187.195ZM187.039 131.621L211.329 93.3541L209.64 92.2823L185.35 130.549L187.039 131.621ZM210.484 93.8182H218.837V91.8182H210.484V93.8182ZM217.837 92.8182V106.227H219.837V92.8182H217.837ZM218.837 105.227H213.893V107.227H218.837V105.227ZM213.048 105.693L197.736 129.926L199.426 130.994L214.739 106.761L213.048 105.693ZM197.581 130.46V130.915H199.581V130.46H197.581ZM198.581 131.915H233.098V129.915H198.581V131.915ZM232.098 130.915V140.773H234.098V130.915H232.098ZM233.098 139.773H186.195V141.773H233.098V139.773ZM215.121 151V137.818H213.121V151H215.121ZM215.119 137.871L215.347 133.581L213.349 133.476L213.122 137.765L215.119 137.871ZM215.348 133.528V92.8182H213.348V133.528H215.348ZM214.348 93.8182H225.882V91.8182H214.348V93.8182ZM224.882 92.8182V151H226.882V92.8182H224.882ZM225.882 150H214.121V152H225.882V150Z" fill="#634409" mask="url(#path-3-outside-1_0_1)"/>
<g clip-path="url(#clip0_0_1)">
<path d="M65.4947 529C64.3758 528.046 63.0055 527.401 61.5313 527.135C60.0571 526.869 58.5348 526.992 57.1281 527.49C55.7215 527.988 54.4839 528.843 53.5483 529.963C52.6128 531.082 52.0149 532.424 51.8189 533.844C51.6429 535.089 51.7837 536.356 52.2293 537.539C52.675 538.721 53.4124 539.783 54.3792 540.635C54.977 541.136 55.4595 541.749 55.7959 542.437C56.1323 543.125 56.3154 543.872 56.3335 544.63V544.771C56.3345 545.627 56.6912 546.448 57.3253 547.053C57.9594 547.659 58.8192 547.999 59.716 548H60.2844C61.1812 547.999 62.0409 547.659 62.6751 547.053C63.3092 546.448 63.6659 545.627 63.6669 544.771V544.291C63.6806 543.62 63.8459 542.96 64.1516 542.356C64.4573 541.752 64.896 541.218 65.4379 540.791C66.3166 540.056 67.0217 539.152 67.5066 538.138C67.9914 537.123 68.245 536.022 68.2503 534.907C68.2557 533.792 68.0128 532.689 67.5377 531.67C67.0627 530.651 66.3663 529.741 65.4947 528.999V529ZM60.2844 546.25H59.716C59.3053 546.25 58.9116 546.094 58.6211 545.816C58.3307 545.539 58.1673 545.163 58.1669 544.771C58.1669 544.771 58.1604 544.544 58.1595 544.5H61.8335V544.771C61.833 545.163 61.6697 545.539 61.3792 545.816C61.0888 546.094 60.6951 546.25 60.2844 546.25V546.25ZM64.226 539.477C63.1823 540.341 62.4286 541.479 62.059 542.75H60.9169V536.464C61.4512 536.284 61.9141 535.95 62.2423 535.509C62.5704 535.068 62.7478 534.541 62.7502 534C62.7502 533.768 62.6536 533.545 62.4817 533.381C62.3098 533.217 62.0766 533.125 61.8335 533.125C61.5904 533.125 61.3572 533.217 61.1853 533.381C61.0134 533.545 60.9169 533.768 60.9169 534C60.9169 534.232 60.8203 534.455 60.6484 534.619C60.4765 534.783 60.2433 534.875 60.0002 534.875C59.7571 534.875 59.5239 534.783 59.352 534.619C59.1801 534.455 59.0835 534.232 59.0835 534C59.0835 533.768 58.9869 533.545 58.815 533.381C58.6431 533.217 58.41 533.125 58.1669 533.125C57.9237 533.125 57.6906 533.217 57.5187 533.381C57.3468 533.545 57.2502 533.768 57.2502 534C57.2525 534.541 57.4299 535.068 57.7581 535.509C58.0863 535.95 58.5492 536.284 59.0835 536.464V542.75H57.8717C57.4583 541.446 56.6829 540.272 55.6277 539.354C54.7321 538.558 54.0939 537.533 53.7884 536.402C53.4829 535.27 53.5229 534.079 53.9036 532.968C54.2844 531.857 54.99 530.874 55.9372 530.134C56.8844 529.394 58.0337 528.927 59.2494 528.79C59.5015 528.763 59.7549 528.75 60.0084 528.75C61.5829 528.746 63.1028 529.3 64.2728 530.306C64.9508 530.883 65.4926 531.591 65.8622 532.383C66.2318 533.175 66.4208 534.034 66.4167 534.901C66.4125 535.768 66.2153 536.624 65.8381 537.413C65.4609 538.202 64.9123 538.906 64.2288 539.477H64.226Z" fill="#634409"/>
</g>
<rect x="95.5" y="26.5" width="111" height="26" rx="13" fill="black" stroke="black"/>
<rect x="91" y="562" width="120" height="5" rx="2.5" fill="#634409"/>
<circle cx="60" cy="538" r="19" fill="#634409" fill-opacity="0.44"/>
<circle cx="237" cy="538" r="19" fill="#634409" fill-opacity="0.44"/>
<path fill-rule="evenodd" clip-rule="evenodd" d="M235.535 530C234.866 530 234.242 530.334 233.871 530.891L232.465 533H230C228.895 533 228 533.895 228 535V544C228 545.105 228.895 546 230 546H244C245.105 546 246 545.105 246 544V535C246 533.895 245.105 533 244 533H241.535L240.129 530.891C239.758 530.334 239.134 530 238.465 530H235.535ZM235.535 532H238.465L239.871 534.109C240.242 534.666 240.866 535 241.535 535H244V544H230V535H232.465C233.134 535 233.758 534.666 234.129 534.109L235.535 532ZM239 539C239 540.105 238.105 541 237 541C235.895 541 235 540.105 235 539C235 537.895 235.895 537 237 537C238.105 537 239 537.895 239 539ZM241 539C241 541.209 239.209 543 237 543C234.791 543 233 541.209 233 539C233 536.791 234.791 535 237 535C239.209 535 241 536.791 241 539Z" fill="#634409"/>
<defs>
<filter id="filter0_d_0_1" x="0" y="0" width="303" height="599" filterUnits="userSpaceOnUse" color-interpolation-filters="sRGB">
<feFlood flood-opacity="0" result="BackgroundImageFix"/>
<feColorMatrix in="SourceAlpha" type="matrix" values="0 0 0 0 0 0 0 0 0 0 0 0 0 0 0 0 0 0 127 0" result="hardAlpha"/>
<feOffset dy="4"/>
<feGaussianBlur stdDeviation="2"/>
<feComposite in2="hardAlpha" operator="out"/>
<feColorMatrix type="matrix" values="0 0 0 0 0 0 0 0 0 0 0 0 0 0 0 0 0 0 0.25 0"/>
<feBlend mode="normal" in2="BackgroundImageFix" result="effect1_dropShadow_0_1"/>
<feBlend mode="normal" in="SourceGraphic" in2="effect1_dropShadow_0_1" result="shape"/>
</filter>
<clipPath id="clip0_0_1">
<rect width="22" height="21" fill="white" transform="translate(49 527)"/>
</clipPath>
</defs>
</svg>
